<svg xmlns="http://www.w3.org/2000/svg" width="31.525" height="30.185" viewBox="47.5 48.612 31.525 30.185"><path fill="#FFF" d="M76.281 66.378s-15.149 1.216-15.224 1.253m.028-.019l-.028.019-6.999-17.625v-.002a.89.89 0 0 0-.678-.553l-4.826-.824h-.002a.914.914 0 0 0-.147-.014h.001a.903.903 0 0 0-.903.816.903.903 0 0 0 .749.957h.003l4.33.737 6.825 17.482-2.188 1.716a.272.272 0 0 0-.029.03c-.003.001-.003.006-.006.008a.03.03 0 0 1-.008.008c-1.025.793-1.522 2.012-1.242 3.133a.288.288 0 0 0 .013.031c.366.857.957 1.418 1.725 1.689a1.818 1.818 0 0 0-1.426 1.77c0 .993.814 1.808 1.81 1.808.994 0 1.808-.814 1.808-1.808 0-.676-.376-1.266-.927-1.577l15.304.043c-.51.322-.85.891-.85 1.534 0 .993.814 1.808 1.809 1.808s1.809-.814 1.809-1.808a1.81 1.81 0 0 0-.842-1.525l1.357.003h.004a.9.9 0 0 0 .902-.889.902.902 0 0 0-.896-.895h-.004l-18.585-.056h-.062c-.486.028-.771-.046-.936-.148s-.234-.235-.279-.418c-.08-.317.06-.892.624-1.312.004-.002.006-.007.011-.009l.011-.006.011-.007 3.088-2.43 15.583-1.239a.896.896 0 0 0 .816-.783l1.207-9.982a.89.89 0 0 0-.213-.69c-.164-.19-.854-.171-1.107-.178l-1.418 9.952m-.02 10.611c0 .591-.473 1.06-1.064 1.06-.59 0-1.063-.469-1.063-1.06 0-.592.473-1.063 1.063-1.063.591 0 1.064.471 1.064 1.063zm-17.145 0c0 .591-.472 1.06-1.063 1.06a1.055 1.055 0 0 1-1.063-1.06c0-.592.472-1.063 1.063-1.063s1.063.471 1.063 1.063zm15.504.019c0 .321.258.575.576.575.322 0 .578-.254.578-.575s-.256-.577-.578-.577a.575.575 0 0 0-.576.577zm-17.145 0c0 .321.257.575.578.575.321 0 .577-.254.577-.575s-.256-.577-.577-.577a.575.575 0 0 0-.578.577z"/></svg>